<svg width="2111" height="2111" viewBox="0 0 2111 2111" fill="none" xmlns="http://www.w3.org/2000/svg">
<circle cx="1055.5" cy="1055.5" r="1055.5" fill="#121016"/>
<path d="M910.096 347.77H1200.9" stroke="white" stroke-width="20" stroke-miterlimit="10" stroke-linecap="round" stroke-linejoin="round"/>
<path d="M1405.6 1604.21C1400.28 1538.6 1345.92 1486.63 1280.14 1484.11C1249.52 1482.94 1221.12 1492.28 1198.27 1508.81C1178.67 1523 1152.29 1523.48 1132.76 1509.2C1111.1 1493.36 1084.39 1484.01 1055.5 1484.01C1026.6 1484.01 999.897 1493.36 978.234 1509.2C958.708 1523.48 932.323 1522.99 912.725 1508.81C889.874 1492.28 861.478 1482.94 830.856 1484.11C765.08 1486.63 710.717 1538.6 705.401 1604.21C704.647 1613.5 704.877 1622.6 705.976 1627.08H1405.02C1406.12 1622.6 1406.35 1613.5 1405.6 1604.21Z" fill="#F71156"/>
<path d="M477.549 1169.57H1633.45C1507.41 1103.27 1398.77 998.905 1313.33 877.018H797.667C712.231 998.905 603.591 1103.27 477.549 1169.57Z" fill="#F71156"/>
<path d="M1664.63 1307.82H446.366C408.189 1307.82 377.238 1276.87 377.238 1238.69C377.238 1200.51 408.186 1169.56 446.366 1169.56H1664.63C1702.81 1169.56 1733.76 1200.51 1733.76 1238.69C1733.76 1276.87 1702.81 1307.82 1664.63 1307.82Z" stroke="white" stroke-width="20" stroke-miterlimit="10" stroke-linecap="round" stroke-linejoin="round"/>
<path d="M1633.45 1169.56C1381.14 1036.86 1198.57 751.59 1132.24 478.645H978.76C912.426 751.59 729.858 1036.86 477.549 1169.56H1633.45V1169.56Z" stroke="white" stroke-width="20" stroke-miterlimit="10" stroke-linecap="round" stroke-linejoin="round"/>
<path d="M1470.28 1627.08H640.725C538.156 1627.08 455.006 1543.93 455.006 1441.36V1307.82H1655.99V1441.36C1656 1543.93 1572.85 1627.08 1470.28 1627.08Z" stroke="white" stroke-width="20" stroke-miterlimit="10" stroke-linecap="round" stroke-linejoin="round"/>
<path d="M1396.81 1763.23H714.186C663.428 1763.23 622.279 1722.08 622.279 1671.32V1627.08H1488.72V1671.32C1488.72 1722.08 1447.57 1763.23 1396.81 1763.23Z" stroke="white" stroke-width="20" stroke-miterlimit="10" stroke-linecap="round" stroke-linejoin="round"/>
<path d="M1171.33 347.77H939.674V478.648H1171.33V347.77Z" stroke="white" stroke-width="20" stroke-miterlimit="10" stroke-linecap="round" stroke-linejoin="round"/>
<path d="M841.627 1023.29H868.069" stroke="white" stroke-width="20" stroke-miterlimit="10" stroke-linecap="round" stroke-linejoin="round"/>
<path d="M1042.28 1023.29H1068.72" stroke="white" stroke-width="20" stroke-miterlimit="10" stroke-linecap="round" stroke-linejoin="round"/>
<path d="M1242.93 1023.29H1269.37" stroke="white" stroke-width="20" stroke-miterlimit="10" stroke-linecap="round" stroke-linejoin="round"/>
</svg>
